<svg width="23" height="26" viewBox="0 0 23 26" fill="none" xmlns="http://www.w3.org/2000/svg">
<path d="M22.518 20.2619C22.105 21.1703 21.6162 22.0064 21.0499 22.7752C20.278 23.8231 19.6459 24.5486 19.1588 24.9514C18.4037 25.6126 17.5947 25.9512 16.7283 25.9705C16.1064 25.9705 15.3564 25.802 14.4833 25.4601C13.6074 25.1199 12.8024 24.9514 12.0663 24.9514C11.2944 24.9514 10.4665 25.1199 9.58092 25.4601C8.69402 25.802 7.97955 25.9801 7.43328 25.9978C6.60251 26.0315 5.77444 25.6832 4.94788 24.9514C4.42033 24.5132 3.76046 23.7622 2.96998 22.6981C2.12185 21.5619 1.42456 20.2442 0.878301 18.7421C0.293273 17.1195 0 15.5483 0 14.0272C0 12.2848 0.395413 10.782 1.18742 9.52262C1.80986 8.51105 2.63794 7.7131 3.67434 7.12732C4.71074 6.54153 5.83057 6.24302 7.03652 6.22393C7.69639 6.22393 8.56171 6.41828 9.63704 6.80024C10.7093 7.18349 11.3979 7.37784 11.6997 7.37784C11.9254 7.37784 12.6903 7.15059 13.9869 6.69753C15.2131 6.27737 16.248 6.1034 17.0958 6.17193C19.3931 6.34847 21.119 7.21077 22.2668 8.76431C20.2122 9.94968 19.1959 11.6099 19.2161 13.7398C19.2346 15.3988 19.8667 16.7793 21.1089 17.8754C21.6718 18.3842 22.3005 18.7774 23 19.0566C22.8483 19.4755 22.6882 19.8767 22.518 20.2619ZM17.2492 0.520148C17.2492 1.82044 16.7503 3.03453 15.7558 4.15827C14.5558 5.49418 13.1042 6.26613 11.5302 6.14432C11.5101 5.98833 11.4985 5.82415 11.4985 5.65162C11.4985 4.40334 12.0692 3.06743 13.0827 1.97514C13.5886 1.4221 14.2322 0.962247 15.0125 0.595417C15.7912 0.23406 16.5278 0.0342214 17.2205 0C17.2407 0.173829 17.2492 0.347687 17.2492 0.520148Z" fill="black"/>
</svg>
