<svg width="59" height="58" viewBox="0 0 59 58" fill="none" xmlns="http://www.w3.org/2000/svg">
<path d="M29.3919 58C45.6246 58 58.7838 45.0163 58.7838 29C58.7838 12.9837 45.6246 0 29.3919 0C13.1592 0 0 12.9837 0 29C0 45.0163 13.1592 58 29.3919 58Z" fill="white"/>
<path d="M58.7837 29C58.7837 28.1186 58.7439 27.2462 58.6658 26.3847L48.8771 16.7267L44.9157 20.3266L35.6604 11.1948L10.0126 41.4165L26.6983 57.8798C27.5939 57.96 28.4926 58.0001 29.3918 58C45.6245 58 58.7837 45.0163 58.7837 29Z" fill="#D7D9DB"/>
<path d="M45.622 15.0495H37.1788L35.9903 11.832C35.7812 11.266 35.4007 10.7771 34.9005 10.4317C34.4002 10.0862 33.8044 9.90092 33.1938 9.90091H25.5901C24.9795 9.90089 24.3837 10.0862 23.8834 10.4316C23.3832 10.7771 23.0027 11.266 22.7937 11.832L21.6051 15.0495H13.162C10.9703 15.0495 9.19348 16.8026 9.19348 18.9651V39.035C9.19348 41.1975 10.9702 42.9506 13.162 42.9506H45.6222C47.8138 42.9506 49.5907 41.1976 49.5907 39.035V18.9651C49.5903 16.8026 47.8136 15.0495 45.622 15.0495Z" fill="#707789"/>
<path d="M45.6221 15.0495H37.179L35.9904 11.832C35.7813 11.266 35.4009 10.7771 34.9006 10.4317C34.4004 10.0862 33.8045 9.90092 33.194 9.90091H29.3743V42.9505H45.6222C47.8139 42.9505 49.5907 41.1975 49.5907 39.0349V18.9651C49.5905 16.8026 47.8138 15.0495 45.6221 15.0495Z" fill="#555A66"/>
<path d="M29.392 41.1234C35.9922 41.1234 41.3427 35.8441 41.3427 29.3319C41.3427 22.8197 35.9922 17.5405 29.392 17.5405C22.7917 17.5405 17.4412 22.8197 17.4412 29.3319C17.4412 35.8441 22.7917 41.1234 29.392 41.1234Z" fill="#9196AA"/>
<path d="M29.3918 17.5405L29.3739 17.5407V41.1232L29.3918 41.1235C35.992 41.1235 41.3426 35.8442 41.3426 29.332C41.3426 22.8198 35.992 17.5405 29.3918 17.5405Z" fill="#707789"/>
<path d="M29.392 36.9538C33.6584 36.9538 37.1169 33.5414 37.1169 29.3319C37.1169 25.1225 33.6584 21.71 29.392 21.71C25.1257 21.71 21.6671 25.1225 21.6671 29.3319C21.6671 33.5414 25.1257 36.9538 29.392 36.9538Z" fill="#414952"/>
<path d="M29.3918 21.71C29.3858 21.71 29.3799 21.7105 29.3739 21.7105V36.9534C29.3799 36.9534 29.3857 36.9538 29.3918 36.9538C33.6581 36.9538 37.1167 33.5413 37.1167 29.3319C37.1167 25.1225 33.6581 21.71 29.3918 21.71Z" fill="#23272B"/>
<path d="M34.2546 14.9078H24.5293L25.4634 12.226H33.3205L34.2546 14.9078Z" fill="#BEC3D2"/>
<path d="M33.3203 12.226H29.3739V14.9078H34.2544L33.3203 12.226ZM40.7845 18.5H47.5922V22.3382H40.7845V18.5Z" fill="#9196AA"/>
<path d="M14.1523 40.1268C15.3918 40.1268 16.3965 39.1354 16.3965 37.9125C16.3965 36.6896 15.3918 35.6982 14.1523 35.6982C12.9129 35.6982 11.9081 36.6896 11.9081 37.9125C11.9081 39.1354 12.9129 40.1268 14.1523 40.1268Z" fill="#BEC3D2"/>
<path d="M25.3364 26.9638C26.142 26.9638 26.7952 26.3193 26.7952 25.5244C26.7952 24.7295 26.142 24.0851 25.3364 24.0851C24.5307 24.0851 23.8776 24.7295 23.8776 25.5244C23.8776 26.3193 24.5307 26.9638 25.3364 26.9638Z" fill="white"/>
<path d="M27.1782 31.1328C28.2981 31.1328 29.2059 30.237 29.2059 29.1321C29.2059 28.0272 28.2981 27.1314 27.1782 27.1314C26.0583 27.1314 25.1505 28.0272 25.1505 29.1321C25.1505 30.237 26.0583 31.1328 27.1782 31.1328Z" fill="white"/>
</svg>
