<svg width="59" height="58" viewBox="0 0 59 58" fill="none" xmlns="http://www.w3.org/2000/svg">
<path d="M29.3919 58C45.6246 58 58.7838 45.0163 58.7838 29C58.7838 12.9837 45.6246 0 29.3919 0C13.1592 0 0 12.9837 0 29C0 45.0163 13.1592 58 29.3919 58Z" fill="white"/>
<path d="M58.7838 33.836C58.7838 33.1016 58.7474 32.3747 58.676 31.6568L49.7256 23.6094L46.1034 26.609L37.6407 19L14.1892 44.182L29.4461 57.8999C30.2649 57.9667 31.0867 58.0001 31.9089 58C46.7515 58 58.7838 47.1814 58.7838 33.836Z" fill="#D4D2D2"/>
<g filter="url(#filter0_d_8635_2666)">
<path d="M42.2058 43.9111L13.1436 40.7331C11.7463 40.5803 10.7392 39.3388 10.894 37.9601L13.5652 14.1799C13.7201 12.8012 14.9784 11.8074 16.3756 11.9603L45.4378 15.1383C46.8351 15.2912 47.8423 16.5326 47.6874 17.9112L45.0162 41.6915C44.8614 43.0702 43.6031 44.0639 42.2058 43.9111Z" fill="url(#paint0_linear_8635_2666)"/>
<path d="M47.6873 17.9113L46.6341 27.2898L44.2932 15.0133L45.4381 15.1384C46.835 15.291 47.842 16.5323 47.6873 17.9113Z" fill="url(#paint1_linear_8635_2666)"/>
<path d="M46.371 39.4937L17.6349 44.8276C16.2533 45.084 14.9226 44.1868 14.6626 42.8237L10.1795 19.3103C9.91956 17.9471 10.8289 16.6341 12.2105 16.3776L40.9466 11.0437C42.3282 10.7873 43.659 11.6845 43.9189 13.0477L48.4021 36.5611C48.662 37.9244 47.7526 39.2374 46.371 39.4937Z" fill="url(#paint2_linear_8635_2666)"/>
<path d="M44.5323 16.2654V39.835L46.371 39.4937C47.7526 39.2373 48.6619 37.9243 48.402 36.5611L44.5323 16.2654Z" fill="url(#paint3_linear_8635_2666)"/>
<path d="M14.5259 42.1062L14.6627 42.8237C14.9226 44.1869 16.2533 45.0841 17.6349 44.8276L32.2965 42.1062H14.5259Z" fill="url(#paint4_linear_8635_2666)"/>
<path d="M41.9869 42.2529H12.7468C11.3409 42.2529 10.2013 41.1284 10.2013 39.7413V15.8154C10.2013 14.4283 11.3409 13.3038 12.7468 13.3038H41.9869C43.3928 13.3038 44.5324 14.4283 44.5324 15.8154V39.7413C44.5324 41.1284 43.3928 42.2529 41.9869 42.2529Z" fill="url(#paint5_linear_8635_2666)"/>
<path d="M39.6032 39.8929H15.1305C13.9539 39.8929 13 38.9518 13 37.7908V17.7659C13 16.605 13.9539 15.6638 15.1305 15.6638H39.6032C40.7798 15.6638 41.7337 16.605 41.7337 17.7659V37.7908C41.7337 38.9518 40.7798 39.8929 39.6032 39.8929Z" fill="url(#paint6_linear_8635_2666)"/>
<path d="M29.0706 39.893H15.1308C13.954 39.893 12.9996 38.9521 12.9996 37.791V34.5083L16.5364 30.2667C17.7036 28.8656 19.8763 28.8656 21.0443 30.2667L23.2465 32.9083L29.0706 39.893Z" fill="url(#paint7_linear_8635_2666)"/>
<path d="M41.7341 32.5125V37.791C41.7341 38.9522 40.7797 39.893 39.6029 39.893H17.4224L23.2466 32.9083L30.4015 24.3266C31.5687 22.9264 33.7421 22.9264 34.9093 24.3266L41.7341 32.5125Z" fill="url(#paint8_linear_8635_2666)"/>
<path d="M20.4436 23.7212C22.1122 23.7212 23.4649 22.3866 23.4649 20.7402C23.4649 19.0939 22.1122 17.7593 20.4436 17.7593C18.775 17.7593 17.4224 19.0939 17.4224 20.7402C17.4224 22.3866 18.775 23.7212 20.4436 23.7212Z" fill="url(#paint9_linear_8635_2666)"/>
</g>
<defs>
<filter id="filter0_d_8635_2666" x="6.13513" y="11" width="46.3113" height="41.8713" filterUnits="userSpaceOnUse" color-interpolation-filters="sRGB">
<feFlood flood-opacity="0" result="BackgroundImageFix"/>
<feColorMatrix in="SourceAlpha" type="matrix" values="0 0 0 0 0 0 0 0 0 0 0 0 0 0 0 0 0 0 127 0" result="hardAlpha"/>
<feOffset dy="4"/>
<feGaussianBlur stdDeviation="2"/>
<feComposite in2="hardAlpha" operator="out"/>
<feColorMatrix type="matrix" values="0 0 0 0 0 0 0 0 0 0 0 0 0 0 0 0 0 0 0.25 0"/>
<feBlend mode="normal" in2="BackgroundImageFix" result="effect1_dropShadow_8635_2666"/>
<feBlend mode="normal" in="SourceGraphic" in2="effect1_dropShadow_8635_2666" result="shape"/>
</filter>
<linearGradient id="paint0_linear_8635_2666" x1="19.9421" y1="16.3897" x2="41.2112" y2="43.2774" gradientUnits="userSpaceOnUse">
<stop stop-color="#FFA936"/>
<stop offset="0.411" stop-color="#FF8548"/>
<stop offset="0.778" stop-color="#FF6C54"/>
<stop offset="1" stop-color="#FF6359"/>
</linearGradient>
<linearGradient id="paint1_linear_8635_2666" x1="46.9804" y1="20.8214" x2="45.1755" y2="21.225" gradientUnits="userSpaceOnUse">
<stop stop-color="#F82814" stop-opacity="0"/>
<stop offset="1" stop-color="#C0272D"/>
</linearGradient>
<linearGradient id="paint2_linear_8635_2666" x1="16.9127" y1="19.5893" x2="45.2088" y2="39.1818" gradientUnits="userSpaceOnUse">
<stop stop-color="#CDEC7A"/>
<stop offset="0.216" stop-color="#B0E995"/>
<stop offset="0.561" stop-color="#87E4BB"/>
<stop offset="0.835" stop-color="#6EE1D2"/>
<stop offset="1" stop-color="#65E0DB"/>
</linearGradient>
<linearGradient id="paint3_linear_8635_2666" x1="47.0704" y1="28.0503" x2="43.9871" y2="28.0503" gradientUnits="userSpaceOnUse">
<stop stop-color="#CDEC7A" stop-opacity="0"/>
<stop offset="0.235" stop-color="#9AD57D" stop-opacity="0.235"/>
<stop offset="0.604" stop-color="#51B482" stop-opacity="0.604"/>
<stop offset="0.868" stop-color="#239F85" stop-opacity="0.868"/>
<stop offset="1" stop-color="#119786"/>
</linearGradient>
<linearGradient id="paint4_linear_8635_2666" x1="23.4112" y1="43.6427" x2="23.4112" y2="41.8404" gradientUnits="userSpaceOnUse">
<stop stop-color="#CDEC7A" stop-opacity="0"/>
<stop offset="0.235" stop-color="#9AD57D" stop-opacity="0.235"/>
<stop offset="0.604" stop-color="#51B482" stop-opacity="0.604"/>
<stop offset="0.868" stop-color="#239F85" stop-opacity="0.868"/>
<stop offset="1" stop-color="#119786"/>
</linearGradient>
<linearGradient id="paint5_linear_8635_2666" x1="16.7657" y1="17.3185" x2="40.8793" y2="41.7579" gradientUnits="userSpaceOnUse">
<stop stop-color="#F8F6FB"/>
<stop offset="1" stop-color="#EFDCFB"/>
</linearGradient>
<linearGradient id="paint6_linear_8635_2666" x1="18.6064" y1="16.5329" x2="42.0444" y2="47.4379" gradientUnits="userSpaceOnUse">
<stop stop-color="#18CEFB"/>
<stop offset="0.297" stop-color="#2BB9F9"/>
<stop offset="0.735" stop-color="#42A0F7"/>
<stop offset="1" stop-color="#4A97F6"/>
</linearGradient>
<linearGradient id="paint7_linear_8635_2666" x1="15.8133" y1="32.4962" x2="26.0815" y2="46.0357" gradientUnits="userSpaceOnUse">
<stop stop-color="#CDEC7A"/>
<stop offset="0.215" stop-color="#B0E995" stop-opacity="0.784"/>
<stop offset="0.56" stop-color="#87E4BB" stop-opacity="0.439"/>
<stop offset="0.833" stop-color="#6EE1D2" stop-opacity="0.165"/>
<stop offset="0.999" stop-color="#65E0DB" stop-opacity="0"/>
</linearGradient>
<linearGradient id="paint8_linear_8635_2666" x1="25.0709" y1="30.4168" x2="37.4549" y2="46.7462" gradientUnits="userSpaceOnUse">
<stop stop-color="#CDEC7A"/>
<stop offset="0.216" stop-color="#B0E995"/>
<stop offset="0.561" stop-color="#87E4BB"/>
<stop offset="0.835" stop-color="#6EE1D2"/>
<stop offset="1" stop-color="#65E0DB"/>
</linearGradient>
<linearGradient id="paint9_linear_8635_2666" x1="18.9425" y1="18.8134" x2="22.9585" y2="24.1089" gradientUnits="userSpaceOnUse">
<stop stop-color="#FFD945"/>
<stop offset="0.304" stop-color="#FFCD3E"/>
<stop offset="0.856" stop-color="#FFAD2B"/>
<stop offset="1" stop-color="#FFA325"/>
</linearGradient>
</defs>
</svg>
