<svg width="40" height="40" viewBox="0 0 40 40" fill="none" xmlns="http://www.w3.org/2000/svg">
<circle cx="20" cy="20" r="20" fill="white"/>
<path d="M29.8055 18.0415H29V18H20V22H25.6515C24.827 24.3285 22.6115 26 20 26C16.6865 26 14 23.3135 14 20C14 16.6865 16.6865 14 20 14C21.5295 14 22.921 14.577 23.9805 15.5195L26.809 12.691C25.023 11.0265 22.634 10 20 10C14.4775 10 10 14.4775 10 20C10 25.5225 14.4775 30 20 30C25.5225 30 30 25.5225 30 20C30 19.3295 29.931 18.675 29.8055 18.0415Z" fill="#FFC107"/>
<path d="M11.1528 15.3455L14.4383 17.755C15.3273 15.554 17.4803 14 19.9998 14C21.5293 14 22.9208 14.577 23.9803 15.5195L26.8088 12.691C25.0228 11.0265 22.6338 10 19.9998 10C16.1588 10 12.8278 12.1685 11.1528 15.3455Z" fill="#FF3D00"/>
<path d="M20.0002 30.0003C22.5832 30.0003 24.9302 29.0118 26.7047 27.4043L23.6097 24.7853C22.5719 25.5745 21.3039 26.0014 20.0002 26.0003C17.3992 26.0003 15.1907 24.3418 14.3587 22.0273L11.0977 24.5398C12.7527 27.7783 16.1137 30.0003 20.0002 30.0003Z" fill="#4CAF50"/>
<path d="M29.8055 18.0415H29V18H20V22H25.6515C25.2571 23.1082 24.5467 24.0766 23.608 24.7855L23.6095 24.7845L26.7045 27.4035C26.4855 27.6025 30 25 30 20C30 19.3295 29.931 18.675 29.8055 18.0415Z" fill="#1976D2"/>
</svg>
