<svg width="30" height="30" viewBox="0 0 30 30" fill="none" xmlns="http://www.w3.org/2000/svg">
<path d="M19.1831 19.183C18.84 19.5264 18.84 20.0828 19.1831 20.4261L21.2968 22.5398C21.6402 22.8829 22.1965 22.8829 22.5399 22.5398C22.8833 22.1965 22.8833 21.6401 22.5399 21.2968L20.4261 19.1831C20.0828 18.8397 19.5264 18.8397 19.1831 19.1831L19.1831 19.183Z" fill="#FD1F47"/>
<path d="M20.4262 19.183L22.5394 21.2963C22.8829 21.6398 22.8825 22.1963 22.5394 22.5393L19.1831 19.1831C19.5262 18.8399 20.0826 18.8395 20.4261 19.1831L20.4262 19.183Z" fill="#FE4A60"/>
<path d="M21.795 21.7949C20.6719 22.918 20.6719 24.7389 21.795 25.8621L25.0904 29.1577C26.2135 30.2808 28.0345 30.2808 29.1576 29.1577C30.2807 28.0346 30.2807 26.2136 29.1576 25.0905L25.8619 21.7949C24.7391 20.6717 22.9181 20.6717 21.795 21.7949Z" fill="#FE4A60"/>
<path d="M25.8624 21.7948L29.1578 25.0902C30.2809 26.2135 30.2807 28.0345 29.1578 29.1572L21.7954 21.7948C22.0061 21.5837 22.2484 21.4068 22.5136 21.2704C23.5955 20.714 24.9558 20.8884 25.8624 21.7948Z" fill="#FF7579"/>
<path d="M3.42842 3.42842C-1.14281 7.99988 -1.14281 15.4114 3.42842 19.9826C7.99988 24.5541 15.4114 24.5541 19.9826 19.9826C24.5541 15.4114 24.5541 7.99982 19.9826 3.42842C15.4114 -1.14281 7.99982 -1.14281 3.42842 3.42842Z" fill="#FFB826"/>
<path d="M3.42871 3.42828L19.9834 19.983C20.2727 19.694 20.5466 19.3901 20.8039 19.0724C24.5356 14.4754 24.2614 7.70742 19.9829 3.42875C15.4117 -1.14224 7.99988 -1.14295 3.42871 3.42828Z" fill="#FFCC4B"/>
<path d="M18.7385 4.67271C14.8543 0.788377 8.55669 0.788377 4.67235 4.67271C0.788252 8.55687 0.788252 14.8545 4.67235 18.7388C8.55669 22.6229 14.8544 22.6229 18.7385 18.7388C22.6228 14.8545 22.6228 8.55681 18.7385 4.67271Z" fill="#D9E4EF"/>
<path d="M6.99809 8.00195H5.11524C4.6298 8.00195 4.23634 8.39541 4.23634 8.88085C4.23634 9.3663 4.6298 9.75976 5.11524 9.75976H6.11913V13.1172C6.11913 13.4111 5.87995 13.6503 5.58581 13.6503C5.2919 13.6503 5.05272 13.4111 5.05272 13.1172C5.05272 12.6318 4.65909 12.2383 4.17382 12.2383C3.68838 12.2383 3.29492 12.6318 3.29492 13.1172C3.29492 14.3804 4.32265 15.4081 5.58581 15.4081C6.84926 15.4081 7.87693 14.3804 7.87693 13.1172V8.88091C7.87693 8.39541 7.48347 8.00201 6.99803 8.00201L6.99809 8.00195Z" fill="#1D9CFD"/>
<path d="M18.7387 18.7388L11.4546 11.4544L11.4333 11.4329L4.67285 4.67219C8.55701 0.788794 14.8553 0.788794 18.7387 4.67219C22.6235 8.55699 22.6235 14.854 18.7387 18.7388Z" fill="#EFF6FE"/>
<path d="M20.115 10.2931C20.115 9.02758 19.0908 8.0022 17.824 8.0022H15.9414C15.4557 8.0022 15.0625 8.39542 15.0625 8.8811V14.5294C15.0625 15.0147 15.4557 15.4083 15.9414 15.4083H17.824C19.0896 15.4083 20.115 14.3841 20.115 13.1175C20.115 12.5981 19.9434 12.1067 19.6275 11.7053C19.9434 11.3034 20.115 10.8118 20.115 10.2931ZM17.824 13.6505H16.8203V12.5842H17.824C17.8941 12.5841 17.9634 12.5978 18.0282 12.6246C18.0929 12.6514 18.1517 12.6907 18.2013 12.7402C18.2508 12.7897 18.2901 12.8485 18.3168 12.9133C18.3436 12.978 18.3573 13.0474 18.3572 13.1175C18.3572 13.4116 18.1187 13.6505 17.824 13.6505ZM17.824 10.8264H16.8203V9.76H17.824C17.894 9.75992 17.9634 9.77366 18.0281 9.80042C18.0928 9.82718 18.1516 9.86644 18.2012 9.91596C18.2507 9.96547 18.29 10.0243 18.3167 10.089C18.3435 10.1537 18.3573 10.2231 18.3572 10.2931C18.3572 10.3631 18.3434 10.4325 18.3167 10.4972C18.2899 10.5619 18.2506 10.6207 18.2011 10.6702C18.1516 10.7197 18.0928 10.759 18.0281 10.7858C17.9634 10.8126 17.894 10.8264 17.824 10.8264Z" fill="#3AB4FB"/>
<path d="M11.4688 8.00195C10.0736 8.00195 8.94336 9.13081 8.94336 10.5274V12.8829C8.94336 14.2758 10.0695 15.4081 11.4707 15.4081C12.8657 15.4081 13.9961 14.2795 13.9961 12.8828V10.5274C13.9961 9.13427 12.87 8.00195 11.4688 8.00195ZM12.2383 12.8828C12.2384 12.9838 12.2185 13.0838 12.1798 13.1771C12.1411 13.2704 12.0844 13.3551 12.0129 13.4264C11.9414 13.4977 11.8566 13.5542 11.7632 13.5926C11.6698 13.631 11.5698 13.6506 11.4688 13.6503C11.0447 13.6503 10.7012 13.3074 10.7012 12.8828V10.5274C10.7012 10.1059 11.041 9.75976 11.4707 9.75976C11.8948 9.75976 12.2383 10.1029 12.2383 10.5274V12.8828Z" fill="#1D9CFD"/>
<path d="M11.4686 8.0022C10.5294 8.0022 9.71019 8.51372 9.2749 9.27432L10.701 10.7005V10.5275C10.701 10.1056 11.0408 9.76 11.4709 9.76C11.8946 9.76 12.2386 10.1027 12.2386 10.5275V12.2386L13.8177 13.8177C13.9362 13.5203 13.9969 13.2031 13.9964 12.8831V10.5275C13.9964 9.13428 12.8701 8.0022 11.4687 8.0022H11.4686Z" fill="#3AB4FB"/>
</svg>
