<svg width="52" height="52" viewBox="0 0 52 52" fill="none" xmlns="http://www.w3.org/2000/svg">
<path d="M29.3583 43.68C28.795 43.9183 28.1883 44.135 27.5383 44.3517L24.115 45.4783C15.5133 48.2517 10.985 45.9333 8.19001 37.3317L5.41667 28.7733C2.64334 20.1717 4.94001 15.6217 13.5417 12.8483L16.8783 11.7433C16.4667 12.7833 16.12 13.975 15.795 15.3183L13.6717 24.3967C11.2883 34.6017 14.7767 40.235 24.9817 42.6617L28.6217 43.5283C28.86 43.5933 29.12 43.6367 29.3583 43.68Z" fill="white"/>
<path d="M37.2017 6.95498L33.5834 6.10998C26.3467 4.39831 22.0351 5.80664 19.5001 11.05C18.8501 12.3716 18.3301 13.975 17.8967 15.8166L15.7734 24.895C13.6501 33.9516 16.4451 38.415 25.4801 40.56L29.1201 41.4266C30.3767 41.73 31.5467 41.925 32.6301 42.0116C39.3901 42.6616 42.9867 39.4983 44.8067 31.6766L46.9301 22.62C49.0534 13.5633 46.2801 9.07831 37.2017 6.95498Z" fill="white"/>
</svg>
