<svg width="52" height="46" viewBox="0 0 52 46" fill="none" xmlns="http://www.w3.org/2000/svg">
<path d="M35.8936 0C37.117 -5.14068e-05 38.202 -0.000374034 39.1152 0.0830078C40.1057 0.173494 41.072 0.37323 42.0283 0.871094C42.9847 1.36902 43.7027 2.04695 44.3447 2.80664C44.9368 3.50695 45.5584 4.39533 46.2598 5.39746L47.9336 7.78809C48.9235 9.20182 49.7898 10.4391 50.3838 11.54C51.0258 12.7296 51.4835 13.9917 51.4404 15.46C51.397 16.9284 50.8662 18.1618 50.1553 19.3115C49.4975 20.3759 48.5586 21.5598 47.4873 22.9131L33.7822 40.2256C32.8906 41.3522 32.1323 42.3095 31.457 43.041C30.7566 43.8 29.9788 44.5053 28.9883 44.9688C26.9181 45.9367 24.5252 45.9367 22.4551 44.9688C21.4645 44.5053 20.6867 43.8 19.9863 43.041C19.3111 42.3095 18.5528 41.3522 17.6611 40.2256L3.95605 22.9131C2.88459 21.5598 1.94606 20.3759 1.28809 19.3115C0.577181 18.1618 0.0461885 16.9284 0.00292969 15.46C-0.0402353 13.9917 0.41766 12.7296 1.05957 11.54C1.65367 10.4391 2.52004 9.20183 3.50977 7.78809L3.58887 7.6748L5.12402 5.48145L5.18359 5.39746C5.88501 4.39535 6.50666 3.50696 7.09863 2.80664C7.74083 2.04695 8.45869 1.36902 9.41504 0.871094C10.3713 0.373261 11.3376 0.173493 12.3281 0.0830078C13.2414 -0.000374034 14.3265 -5.14068e-05 15.5498 0H35.8936Z" fill="#FEF9F3"/>
</svg>
